<svg width="1269" height="164" viewBox="0 0 1269 164" fill="none" xmlns="http://www.w3.org/2000/svg">
<path d="M107.549 1.16174H0.222656V33.0124H107.549V1.16174Z" fill="#224394"/>
<path d="M0.222656 68.7579V100.037V160.935H34.471V100.037H107.549V68.7579H34.471H0.222656Z" fill="#224394"/>
<path d="M154.375 160.935H122.391L123.54 12.327L154.375 2.28711V160.935Z" fill="#224394"/>
<path d="M415.502 108.745C406.497 122.022 391.107 130.78 373.611 130.78C345.855 130.78 323.371 108.762 323.371 81.6196C323.371 54.4772 345.873 32.4587 373.611 32.4587C390.824 32.4587 406.002 40.9234 415.059 53.8368L442.196 36.1458C427.478 14.4042 402.269 0.0540771 373.611 0.0540771C328.2 0.0540771 291.404 36.0765 291.404 80.4944C291.404 124.912 328.218 160.935 373.611 160.935C401.615 160.935 426.328 147.225 441.17 126.314L415.502 108.745Z" fill="#224394"/>
<path d="M522.617 1.16174C477.525 1.16174 440.977 36.9245 440.977 81.0482C440.977 125.172 477.525 160.935 522.617 160.935C567.71 160.935 604.258 125.172 604.258 81.0482C604.258 36.9245 567.71 1.16174 522.617 1.16174ZM522.051 130.763C494.295 130.763 471.811 108.744 471.811 81.6021C471.811 54.4598 494.313 32.4412 522.051 32.4412C549.789 32.4412 572.291 54.4598 572.291 81.6021C572.291 108.744 549.789 130.763 522.051 130.763Z" fill="#224394"/>
<path d="M261.703 48.0895L282.259 23.5091C282.259 23.5091 241.147 -12.2537 200.052 6.75285C176.931 17.4332 172.951 35.1935 173.906 48.6781C174.755 60.6394 180.522 71.7525 189.58 79.8364C198.584 87.8856 215.071 93.5807 236.6 100.591C243.447 102.824 248.789 105.352 250.31 110.648C251.779 115.824 252.009 121.865 243.464 127.284C235.91 132.078 226.517 133.134 217.866 130.711C207.801 127.889 193.843 121.71 186.378 108.415L164.689 131.871C164.689 131.871 193.242 173.207 242.332 160.917C242.332 160.917 277.925 154.391 282.188 122.021C284.736 102.651 274.387 83.9389 256.997 74.3491C249.444 70.1773 239.395 65.9536 226.075 62.3012C222.271 61.2626 218.662 59.6008 215.514 57.2812C211.233 54.1135 206.898 49.2147 208.19 42.8272C209.481 36.4398 215.673 32.6315 221.988 31.6795C229.843 30.5024 242.827 32.6316 261.756 48.0549L261.703 48.0895Z" fill="#224394"/>
<path d="M741.586 65.971H693.309V97.2504H742.081C735.624 117.105 716.625 131.507 694.194 131.507C666.438 131.507 643.953 109.489 643.953 82.3464C643.953 55.204 666.455 33.1855 694.194 33.1855C710.398 33.1855 724.798 40.6981 733.979 52.3478L759.86 33.5836C744.947 14.3347 721.348 1.90601 694.76 1.90601C649.667 1.90601 613.119 37.6688 613.119 81.7924C613.119 125.916 649.667 161.679 694.76 161.679C739.852 161.679 775.516 126.851 775.516 82.7445C775.516 77.3264 775.852 71.0947 774.808 65.9882H741.586V65.971Z" fill="#224394"/>
<path d="M886.292 2.28711H782.379V32.4587H886.292V2.28711Z" fill="#224394"/>
<path d="M888.594 66.5249H784.682V96.6966H888.594V66.5249Z" fill="#224394"/>
<path d="M888.594 130.763H784.682V160.935H888.594V130.763Z" fill="#224394"/>
<path d="M1008.48 2.28711V104.694L936.534 2.28711H906.85V160.935H938.816V59.8607L1010.76 160.935H1040.45V2.28711H1008.48Z" fill="#224394"/>
<path d="M1090.69 160.935H1058.72L1059.85 12.327L1090.69 2.28711V160.935Z" fill="#224394"/>
<path d="M1186.97 0.79834C1141.88 0.79834 1105.33 36.5612 1105.33 80.6848C1105.33 124.808 1141.88 160.571 1186.97 160.571C1232.07 160.571 1268.62 124.808 1268.62 80.6848C1268.62 36.5612 1232.07 0.79834 1186.97 0.79834ZM1186.39 130.417C1158.63 130.417 1136.15 108.398 1136.15 81.256C1136.15 54.1137 1158.65 32.0952 1186.39 32.0952C1214.13 32.0952 1236.63 54.1137 1236.63 81.256C1236.63 108.398 1214.13 130.417 1186.39 130.417Z" fill="#224394"/>
<path d="M107.549 1.16174H0.222656V33.0124H107.549V1.16174Z" fill="#224394"/>
<path d="M0.222656 68.7579V100.037V160.935H34.471V100.037H107.549V68.7579H34.471H0.222656Z" fill="#224394"/>
<path d="M154.375 160.935H122.391L123.54 12.327L154.375 2.28711V160.935Z" fill="#224394"/>
<path d="M415.502 108.745C406.497 122.022 391.107 130.78 373.611 130.78C345.855 130.78 323.371 108.762 323.371 81.6196C323.371 54.4772 345.873 32.4587 373.611 32.4587C390.824 32.4587 406.002 40.9234 415.059 53.8368L442.196 36.1458C427.478 14.4042 402.269 0.0540771 373.611 0.0540771C328.2 0.0540771 291.404 36.0765 291.404 80.4944C291.404 124.912 328.218 160.935 373.611 160.935C401.615 160.935 426.328 147.225 441.17 126.314L415.502 108.745Z" fill="#224394"/>
<path d="M522.617 1.16174C477.525 1.16174 440.977 36.9245 440.977 81.0482C440.977 125.172 477.525 160.935 522.617 160.935C567.71 160.935 604.258 125.172 604.258 81.0482C604.258 36.9245 567.71 1.16174 522.617 1.16174ZM522.051 130.763C494.295 130.763 471.811 108.744 471.811 81.6021C471.811 54.4598 494.313 32.4412 522.051 32.4412C549.789 32.4412 572.291 54.4598 572.291 81.6021C572.291 108.744 549.789 130.763 522.051 130.763Z" fill="#224394"/>
<path d="M261.703 48.0895L282.259 23.5091C282.259 23.5091 241.147 -12.2537 200.052 6.75285C176.931 17.4332 172.951 35.1935 173.906 48.6781C174.755 60.6394 180.522 71.7525 189.58 79.8364C198.584 87.8856 215.071 93.5807 236.6 100.591C243.447 102.824 248.789 105.352 250.31 110.648C251.779 115.824 252.009 121.865 243.464 127.284C235.91 132.078 226.517 133.134 217.866 130.711C207.801 127.889 193.843 121.71 186.378 108.415L164.689 131.871C164.689 131.871 193.242 173.207 242.332 160.917C242.332 160.917 277.925 154.391 282.188 122.021C284.736 102.651 274.387 83.9389 256.997 74.3491C249.444 70.1773 239.395 65.9536 226.075 62.3012C222.271 61.2626 218.662 59.6008 215.514 57.2812C211.233 54.1135 206.898 49.2147 208.19 42.8272C209.481 36.4398 215.673 32.6315 221.988 31.6795C229.843 30.5024 242.827 32.6316 261.756 48.0549L261.703 48.0895Z" fill="#224394"/>
<path d="M741.586 65.971H693.309V97.2504H742.081C735.624 117.105 716.625 131.507 694.194 131.507C666.438 131.507 643.953 109.489 643.953 82.3464C643.953 55.204 666.455 33.1855 694.194 33.1855C710.398 33.1855 724.798 40.6981 733.979 52.3478L759.86 33.5836C744.947 14.3347 721.348 1.90601 694.76 1.90601C649.667 1.90601 613.119 37.6688 613.119 81.7924C613.119 125.916 649.667 161.679 694.76 161.679C739.852 161.679 775.516 126.851 775.516 82.7445C775.516 77.3264 775.852 71.0947 774.808 65.9882H741.586V65.971Z" fill="#224394"/>
<path d="M888.594 66.5249H784.682V96.6966H888.594V66.5249Z" fill="#224394"/>
<path d="M888.594 130.763H784.682V160.935H888.594V130.763Z" fill="#224394"/>
<path d="M1008.48 2.28711V104.694L936.534 2.28711H906.85V160.935H938.816V59.8607L1010.76 160.935H1040.45V2.28711H1008.48Z" fill="#224394"/>
<path d="M1090.69 160.935H1058.72L1059.85 12.327L1090.69 2.28711V160.935Z" fill="#224394"/>
<path d="M1186.97 0.79834C1141.88 0.79834 1105.33 36.5612 1105.33 80.6848C1105.33 124.808 1141.88 160.571 1186.97 160.571C1232.07 160.571 1268.62 124.808 1268.62 80.6848C1268.62 36.5612 1232.07 0.79834 1186.97 0.79834ZM1186.39 130.417C1158.63 130.417 1136.15 108.398 1136.15 81.256C1136.15 54.1137 1158.65 32.0952 1186.39 32.0952C1214.13 32.0952 1236.63 54.1137 1236.63 81.256C1236.63 108.398 1214.13 130.417 1186.39 130.417Z" fill="#224394"/>
</svg>
